<?xml version="1.0" encoding="iso-8859-1"?>
<!-- Generator: Adobe Illustrator 19.0.0, SVG Export Plug-In . SVG Version: 6.00 Build 0)  -->
<svg version="1.1" id="Layer_1" xmlns="http://www.w3.org/2000/svg" xmlns:xlink="http://www.w3.org/1999/xlink" x="0px" y="0px"
	 viewBox="0 0 512 512" style="enable-background:new 0 0 512 512;" xml:space="preserve">
<path style="fill:#444444;" d="M266.818,151.474H163.989V59.041h102.829V151.474z"/>
<path style="fill:#282828;" d="M266.818,151.474h-51.414V59.041h51.414V151.474z"/>
<path style="fill:#F4DA49;" d="M403.447,512H108.553V118.083h203.11l91.784,77.47L403.447,512L403.447,512z"/>
<path style="fill:#E69824;" d="M403.447,512H215.404V118.083h96.259l91.784,77.47L403.447,512L403.447,512z"/>
<path style="fill:#F4DA49;" d="M285.349,92.433h-139.89V0H285.35v92.433H285.349z"/>
<path style="fill:#E69824;" d="M285.349,92.433h-69.945V0h69.945V92.433z"/>
<path style="fill:#444444;" d="M215.404,409.722c-31.761,0-57.6-25.839-57.6-57.6c0-46.562,43.108-97.208,44.942-99.341
	l12.658-14.713l12.658,14.713c1.834,2.134,44.942,52.779,44.942,99.341C273.004,383.883,247.165,409.722,215.404,409.722z"/>
<path style="fill:#282828;" d="M215.404,409.722c0-32.035,0-171.655,0-171.655l12.658,14.713
	c1.834,2.134,44.942,52.779,44.942,99.341C273.004,383.883,247.165,409.722,215.404,409.722z"/>
<g>
</g>
<g>
</g>
<g>
</g>
<g>
</g>
<g>
</g>
<g>
</g>
<g>
</g>
<g>
</g>
<g>
</g>
<g>
</g>
<g>
</g>
<g>
</g>
<g>
</g>
<g>
</g>
<g>
</g>
</svg>
